<svg clip-rule="evenodd" fill-rule="evenodd" stroke-linejoin="round" stroke-miterlimit="2" viewBox="0 0 560 400" xmlns="http://www.w3.org/2000/svg"><g transform="matrix(5.46034 0 0 5.46034 100 131.746)"><path d="m23.97 12.485c0-6.615-5.37-11.985-11.985-11.985s-11.985 5.37-11.985 11.985v.03c0 6.615 5.37 11.985 11.985 11.985s11.985-5.37 11.985-11.985zm-7.17.695c0 2.86-2.1 4.69-4.8 4.69-1.29 0-2.33-.4-3.03-1.19v1.05h-2.31v-12.56h2.44v4.42c.72-.75 1.7-1.1 2.9-1.1 2.7 0 4.8 1.82 4.8 4.69zm-2.26 0c0-1.58-1.06-2.53-2.46-2.53s-2.45.95-2.45 2.53c0 1.57 1.06 2.52 2.45 2.52 1.4 0 2.46-.95 2.46-2.52z" fill="#9b2ad6"/><g fill-rule="nonzero"><path d="m17.17 16.41c0-.8.62-1.32 1.4-1.32.8 0 1.42.52 1.42 1.32s-.63 1.35-1.41 1.35c-.79 0-1.41-.57-1.41-1.35z" fill="#ff8500"/><path d="m35.41 6.72c1.088-.059 2.169.213 3.1.78.72.46 1.149 1.265 1.13 2.12-.001 1.22-.851 2.286-2.04 2.56 1.442.211 2.511 1.483 2.47 2.94 0 1-.4 1.79-1.2 2.37-.8.57-1.9.86-3.27.86h-5.63v-11.63zm-.13 4.68c.5 0 .9-.1 1.18-.33.3-.23.44-.55.44-.96 0-.4-.14-.71-.44-.93-.344-.241-.761-.354-1.18-.32h-2.64v2.54zm0 4.8c.63 0 1.13-.12 1.49-.36.36-.25.54-.6.54-1.05 0-.42-.18-.75-.54-1-.453-.265-.977-.384-1.5-.34h-2.63v2.76h2.64zm15.76-9.48h2.54v11.63h-2.44l-5.73-7.48v7.48h-2.55v-11.63h2.43l5.75 7.5zm13.79 3.24c-1.124-.672-2.386-1.082-3.69-1.2-.46 0-.83.08-1.1.25-.259.149-.414.431-.4.73 0 .41.19.73.57.95.4.2 1 .43 1.81.66.81.24 1.48.47 2 .7.53.23.98.58 1.35 1.05.37.46.56 1.08.56 1.84 0 .75-.2 1.39-.61 1.93-.4.53-.94.94-1.64 1.21-.7.28-1.5.42-2.39.42-1.901-.004-3.745-.661-5.22-1.86l1.06-2.15c.6.54 1.29.96 2.07 1.28.77.33 1.48.49 2.13.49.55 0 .98-.1 1.28-.3.32-.2.48-.5.48-.87 0-.3-.11-.54-.32-.73-.2-.2-.47-.36-.8-.48-.32-.12-.75-.26-1.32-.42-.81-.22-1.48-.44-2-.66-.511-.227-.96-.574-1.31-1.01-.396-.521-.594-1.166-.56-1.82 0-.7.19-1.3.57-1.82.39-.54.92-.94 1.61-1.22.763-.301 1.579-.447 2.4-.43 1.59-.005 3.15.438 4.5 1.28z"/></g></g></svg>